<svg width="20" height="20" viewBox="0 0 17 17" fill="none" xmlns="http://www.w3.org/2000/svg">
<path d="M8.46952 0.776794C12.7182 0.776794 16.1622 4.22083 16.1622 8.46952C16.1622 12.7182 12.7182 16.1622 8.46952 16.1622C4.22083 16.1622 0.776794 12.7182 0.776794 8.46952C0.776794 4.22083 4.22083 0.776794 8.46952 0.776794ZM8.46952 10.7773C8.2655 10.7773 8.06983 10.8584 7.92556 11.0027C7.7813 11.1469 7.70025 11.3426 7.70025 11.5466C7.70025 11.7506 7.7813 11.9463 7.92556 12.0906C8.06983 12.2348 8.2655 12.3159 8.46952 12.3159C8.67355 12.3159 8.86921 12.2348 9.01348 12.0906C9.15775 11.9463 9.23879 11.7506 9.23879 11.5466C9.23879 11.3426 9.15775 11.1469 9.01348 11.0027C8.86921 10.8584 8.67355 10.7773 8.46952 10.7773ZM8.46952 3.85389C8.2811 3.85391 8.09924 3.92309 7.95844 4.04829C7.81763 4.1735 7.72768 4.34603 7.70563 4.53315L7.70025 4.62316V9.23879C7.70047 9.43487 7.77554 9.62346 7.91014 9.76603C8.04474 9.9086 8.2287 9.9944 8.42444 10.0059C8.62017 10.0174 8.81291 9.9537 8.96327 9.82785C9.11362 9.70201 9.21025 9.5235 9.23341 9.3288L9.23879 9.23879V4.62316C9.23879 4.41913 9.15775 4.22347 9.01348 4.0792C8.86921 3.93493 8.67355 3.85389 8.46952 3.85389Z" fill="#555555"/>
</svg>
